<svg version="1.1" xmlns="http://www.w3.org/2000/svg" viewBox="0 0 2003.28117090679 307.38010986436257" width="2003.28117090679" height="307.38010986436257">
  <!-- svg-source:excalidraw -->
  
  <defs>
    <style class="style-fonts">
      @font-face {
        font-family: "Virgil";
        src: url("https://excalidraw.com/Virgil.woff2");
      }
      @font-face {
        font-family: "Cascadia";
        src: url("https://excalidraw.com/Cascadia.woff2");
      }
      @font-face {
        font-family: "Assistant";
        src: url("https://excalidraw.com/Assistant-Regular.woff2");
      }
    </style>
    
  </defs>
  <rect x="0" y="0" width="2003.28117090679" height="307.38010986436257" fill="#ffffff"></rect><g transform="translate(1716.2270778000748 67.46215550038323) rotate(0 123.0250015258789 12)"><text x="0" y="19.3125" font-family="Cascadia, Segoe UI Emoji" font-size="20px" fill="#1971c2" text-anchor="start" style="white-space: pre;" direction="ltr" dominant-baseline="alphabetic">ADR-component-country</text></g><g transform="translate(490.09165279966146 67.46215550038323) rotate(0 99.59166717529297 12)"><text x="0" y="19.3125" font-family="Cascadia, Segoe UI Emoji" font-size="20px" fill="#f08c00" text-anchor="start" style="white-space: pre;" direction="ltr" dominant-baseline="alphabetic">ADR-component-ext</text></g><g transform="translate(475.4299244765025 67.46215550038323) rotate(0 5.858333110809326 12)"><text x="0" y="19.3125" font-family="Cascadia, Segoe UI Emoji" font-size="20px" fill="#1e1e1e" text-anchor="start" style="white-space: pre;" direction="ltr" dominant-baseline="alphabetic">;</text></g><g transform="translate(692.2200492517877 67.46215550038323) rotate(0 5.858333110809326 12)"><text x="0" y="19.3125" font-family="Cascadia, Segoe UI Emoji" font-size="20px" fill="#1e1e1e" text-anchor="start" style="white-space: pre;" direction="ltr" dominant-baseline="alphabetic">;</text></g><g transform="translate(706.8817775749467 67.46215550038323) rotate(0 117.95907689256 12)"><text x="0" y="19.3125" font-family="Cascadia, Segoe UI Emoji" font-size="20px" fill="#1971c2" text-anchor="start" style="white-space: pre;" direction="ltr" dominant-baseline="alphabetic">ADR-component-street</text></g><g transform="translate(945.744993461607 67.46215550038323) rotate(0 5.858333110809326 12)"><text x="0" y="19.3125" font-family="Cascadia, Segoe UI Emoji" font-size="20px" fill="#1e1e1e" text-anchor="start" style="white-space: pre;" direction="ltr" dominant-baseline="alphabetic">;</text></g><g transform="translate(960.406721784766 67.46215550038323) rotate(0 128.88333129882812 12)"><text x="0" y="19.3125" font-family="Cascadia, Segoe UI Emoji" font-size="20px" fill="#2f9e44" text-anchor="start" style="white-space: pre;" direction="ltr" dominant-baseline="alphabetic">ADR-component-locality</text></g><g transform="translate(1235.7801748071215 67.46215550038323) rotate(0 117.16666412353516 12)"><text x="0" y="19.3125" font-family="Cascadia, Segoe UI Emoji" font-size="20px" fill="#e03131" text-anchor="start" style="white-space: pre;" direction="ltr" dominant-baseline="alphabetic">ADR-component-region</text></g><g transform="translate(1221.1184464839625 67.46215550038323) rotate(0 5.858333110809326 12)"><text x="0" y="19.3125" font-family="Cascadia, Segoe UI Emoji" font-size="20px" fill="#1e1e1e" text-anchor="start" style="white-space: pre;" direction="ltr" dominant-baseline="alphabetic">;</text></g><g transform="translate(1487.720293478891 67.46215550038323) rotate(0 105.44999694824219 12)"><text x="0" y="19.3125" font-family="Cascadia, Segoe UI Emoji" font-size="20px" fill="#f08c00" text-anchor="start" style="white-space: pre;" direction="ltr" dominant-baseline="alphabetic">ADR-component-code</text></g><g transform="translate(1473.0585651557321 67.46215550038323) rotate(0 5.858333110809326 12)"><text x="0" y="19.3125" font-family="Cascadia, Segoe UI Emoji" font-size="20px" fill="#1e1e1e" text-anchor="start" style="white-space: pre;" direction="ltr" dominant-baseline="alphabetic">;</text></g><g transform="translate(1701.5653494769158 67.46215550038323) rotate(0 5.858333110809326 12)"><text x="0" y="19.3125" font-family="Cascadia, Segoe UI Emoji" font-size="20px" fill="#1e1e1e" text-anchor="start" style="white-space: pre;" direction="ltr" dominant-baseline="alphabetic">;</text></g><g transform="translate(238.15153412789186 67.22307035105587) rotate(0 117.16666412353516 12)"><text x="0" y="19.3125" font-family="Cascadia, Segoe UI Emoji" font-size="20px" fill="#e03131" text-anchor="start" style="white-space: pre;" direction="ltr" dominant-baseline="alphabetic">ADR-component-pobox </text></g><g stroke-linecap="round"><g transform="translate(340.2491592465467 169.9803866973425) rotate(0 0 -38.00404102548828)"><path d="M0.01 0.97 C0.01 -11.71, 0.47 -63.09, 0.37 -75.74 M-1.45 0.43 C-1.6 -12.66, -0.35 -64.87, -0.38 -77.72" stroke="#e03131" stroke-width="1" fill="none"></path></g><g transform="translate(340.2491592465467 169.9803866973425) rotate(0 0 -38.00404102548828)"><path d="M7.88 -54.13 C6.71 -61.26, 2.83 -70.58, -0.38 -77.72 M7.88 -54.13 C5.57 -62.38, 2.15 -72.63, -0.38 -77.72" stroke="#e03131" stroke-width="1" fill="none"></path></g><g transform="translate(340.2491592465467 169.9803866973425) rotate(0 0 -38.00404102548828)"><path d="M-9.22 -54.33 C-4.77 -61.4, -3.03 -70.66, -0.38 -77.72 M-9.22 -54.33 C-4.84 -62.45, -1.58 -72.61, -0.38 -77.72" stroke="#e03131" stroke-width="1" fill="none"></path></g></g><mask></mask><g transform="translate(224.30462730438012 179.81339069906244) rotate(0 117.16666412353516 24)"><text x="0" y="19.3125" font-family="Cascadia, Segoe UI Emoji" font-size="20px" fill="#e03131" text-anchor="start" style="white-space: pre;" direction="ltr" dominant-baseline="alphabetic">Numéro boîte postale</text><text x="0" y="43.3125" font-family="Cascadia, Segoe UI Emoji" font-size="20px" fill="#e03131" text-anchor="start" style="white-space: pre;" direction="ltr" dominant-baseline="alphabetic">(facultatif)</text></g><g stroke-linecap="round"><g transform="translate(588.1359979380086 229.29350745574084) rotate(0 0 -67.63431029959747)"><path d="M-1.11 0.16 C-1.17 -22.56, -0.38 -113.61, -0.34 -136.28 M0.51 -0.8 C0.25 -23.41, -1.64 -112.93, -1.47 -135.27" stroke="#f08c00" stroke-width="1" fill="none"></path></g><g transform="translate(588.1359979380086 229.29350745574084) rotate(0 0 -67.63431029959747)"><path d="M7.29 -111.85 C4.88 -119.63, 0.27 -127.68, -1.47 -135.27 M7.29 -111.85 C4.95 -118.1, 3.4 -124.41, -1.47 -135.27" stroke="#f08c00" stroke-width="1" fill="none"></path></g><g transform="translate(588.1359979380086 229.29350745574084) rotate(0 0 -67.63431029959747)"><path d="M-9.81 -111.7 C-7.01 -119.37, -6.42 -127.46, -1.47 -135.27 M-9.81 -111.7 C-7.84 -117.85, -5.09 -124.19, -1.47 -135.27" stroke="#f08c00" stroke-width="1" fill="none"></path></g></g><mask></mask><g transform="translate(726.4584676323047 10) rotate(0 87.875 12)"><text x="0" y="19.3125" font-family="Cascadia, Segoe UI Emoji" font-size="20px" fill="#1971c2" text-anchor="start" style="white-space: pre;" direction="ltr" dominant-baseline="alphabetic">100 Waters Edge</text></g><g transform="translate(1024.5382850601382 10) rotate(0 41.00833511352539 12)"><text x="0" y="19.3125" font-family="Cascadia, Segoe UI Emoji" font-size="20px" fill="#2f9e44" text-anchor="start" style="white-space: pre;" direction="ltr" dominant-baseline="alphabetic">Baytown</text></g><g transform="translate(1308.9079242248172 10) rotate(0 11.716666221618652 12)"><text x="0" y="19.3125" font-family="Cascadia, Segoe UI Emoji" font-size="20px" fill="#e03131" text-anchor="start" style="white-space: pre;" direction="ltr" dominant-baseline="alphabetic">LA</text></g><g transform="translate(1561.8701656139438 10) rotate(0 29.29166603088379 12)"><text x="0" y="19.3125" font-family="Cascadia, Segoe UI Emoji" font-size="20px" fill="#f08c00" text-anchor="start" style="white-space: pre;" direction="ltr" dominant-baseline="alphabetic">30314</text></g><g transform="translate(1712.0811586997588 10) rotate(0 140.60000610351562 12)"><text x="0" y="19.3125" font-family="Cascadia, Segoe UI Emoji" font-size="20px" fill="#1971c2" text-anchor="start" style="white-space: pre;" direction="ltr" dominant-baseline="alphabetic">United States of America</text></g><g transform="translate(474.81253704347546 10) rotate(0 5.858333110809326 12)"><text x="0" y="19.3125" font-family="Cascadia, Segoe UI Emoji" font-size="20px" fill="#1e1e1e" text-anchor="start" style="white-space: pre;" direction="ltr" dominant-baseline="alphabetic">;</text></g><g transform="translate(695.1071477335936 10) rotate(0 5.858333110809326 12)"><text x="0" y="19.3125" font-family="Cascadia, Segoe UI Emoji" font-size="20px" fill="#1e1e1e" text-anchor="start" style="white-space: pre;" direction="ltr" dominant-baseline="alphabetic">;</text></g><g transform="translate(943.7437551206895 10) rotate(0 5.858333110809326 12)"><text x="0" y="19.3125" font-family="Cascadia, Segoe UI Emoji" font-size="20px" fill="#1e1e1e" text-anchor="start" style="white-space: pre;" direction="ltr" dominant-baseline="alphabetic">;</text></g><g transform="translate(1219.4340866276216 10) rotate(0 5.858333110809326 12)"><text x="0" y="19.3125" font-family="Cascadia, Segoe UI Emoji" font-size="20px" fill="#1e1e1e" text-anchor="start" style="white-space: pre;" direction="ltr" dominant-baseline="alphabetic">;</text></g><g transform="translate(1466.7824214375796 10) rotate(0 5.858333110809326 12)"><text x="0" y="19.3125" font-family="Cascadia, Segoe UI Emoji" font-size="20px" fill="#1e1e1e" text-anchor="start" style="white-space: pre;" direction="ltr" dominant-baseline="alphabetic">;</text></g><g transform="translate(1697.3832127447822 10) rotate(0 5.858333110809326 12)"><text x="0" y="19.3125" font-family="Cascadia, Segoe UI Emoji" font-size="20px" fill="#1e1e1e" text-anchor="start" style="white-space: pre;" direction="ltr" dominant-baseline="alphabetic">;</text></g><g transform="translate(331.2312512066019 10) rotate(0 23.433332443237305 12)"><text x="0" y="19.3125" font-family="Cascadia, Segoe UI Emoji" font-size="20px" fill="#1e1e1e" text-anchor="start" style="white-space: pre;" direction="ltr" dominant-baseline="alphabetic">vide</text></g><g transform="translate(571.8937970760799 10) rotate(0 23.433332443237305 12)"><text x="0" y="19.3125" font-family="Cascadia, Segoe UI Emoji" font-size="20px" fill="#1e1e1e" text-anchor="start" style="white-space: pre;" direction="ltr" dominant-baseline="alphabetic">vide</text></g><g stroke-linecap="round"><g transform="translate(814.5115268951267 170.28815888659938) rotate(0 0 -38.00404102548828)"><path d="M0.25 -0.45 C0.33 -13.35, -0.62 -64.44, -0.48 -76.91 M-1.08 -1.73 C-1.11 -14.55, -2.01 -63.27, -1.68 -75.85" stroke="#1971c2" stroke-width="1" fill="none"></path></g><g transform="translate(814.5115268951267 170.28815888659938) rotate(0 0 -38.00404102548828)"><path d="M6.84 -52.35 C4.14 -58.26, 1.52 -60.79, -1.68 -75.85 M6.84 -52.35 C3.59 -61.52, 0.44 -68.64, -1.68 -75.85" stroke="#1971c2" stroke-width="1" fill="none"></path></g><g transform="translate(814.5115268951267 170.28815888659938) rotate(0 0 -38.00404102548828)"><path d="M-10.26 -52.37 C-9.23 -58.31, -8.11 -60.83, -1.68 -75.85 M-10.26 -52.37 C-7.34 -61.66, -4.32 -68.77, -1.68 -75.85" stroke="#1971c2" stroke-width="1" fill="none"></path></g></g><mask></mask><g stroke-linecap="round"><g transform="translate(1069.8956777849744 167.7704095990557) rotate(0 0 -38.00404102548828)"><path d="M0.73 1.07 C1.02 -11.77, 1.13 -63.12, 0.86 -75.98 M-0.35 0.59 C-0.06 -11.54, 0.05 -61.86, 0.36 -74.42" stroke="#2f9e44" stroke-width="1" fill="none"></path></g><g transform="translate(1069.8956777849744 167.7704095990557) rotate(0 0 -38.00404102548828)"><path d="M8.62 -50.83 C8.34 -54.65, 4.75 -62.88, 0.36 -74.42 M8.62 -50.83 C7 -57.34, 3.82 -65.36, 0.36 -74.42" stroke="#2f9e44" stroke-width="1" fill="none"></path></g><g transform="translate(1069.8956777849744 167.7704095990557) rotate(0 0 -38.00404102548828)"><path d="M-8.48 -51.03 C-4.92 -54.91, -4.67 -63.1, 0.36 -74.42 M-8.48 -51.03 C-5.04 -57.48, -3.16 -65.44, 0.36 -74.42" stroke="#2f9e44" stroke-width="1" fill="none"></path></g></g><mask></mask><g stroke-linecap="round"><g transform="translate(1343.0094641376381 169.42298964595375) rotate(0 0 -38.00404102548828)"><path d="M-0.05 0.73 C-0.06 -11.59, -0.13 -62.11, -0.03 -74.85 M-1.53 0.07 C-1.71 -12.48, -1.26 -63.98, -0.99 -76.37" stroke="#e03131" stroke-width="1" fill="none"></path></g><g transform="translate(1343.0094641376381 169.42298964595375) rotate(0 0 -38.00404102548828)"><path d="M7.23 -52.76 C6.15 -59.96, 4.36 -66.1, -0.99 -76.37 M7.23 -52.76 C4.59 -61.11, 2.4 -67.84, -0.99 -76.37" stroke="#e03131" stroke-width="1" fill="none"></path></g><g transform="translate(1343.0094641376381 169.42298964595375) rotate(0 0 -38.00404102548828)"><path d="M-9.86 -53 C-5.78 -60.11, -2.39 -66.19, -0.99 -76.37 M-9.86 -53 C-6.98 -61.12, -3.64 -67.78, -0.99 -76.37" stroke="#e03131" stroke-width="1" fill="none"></path></g></g><mask></mask><g stroke-linecap="round"><g transform="translate(1580.0516183305153 171.4640147473974) rotate(0 0 -38.00404102548828)"><path d="M0.28 -0.68 C-0.08 -13.46, -0.82 -63.66, -1 -76.15 M-1.03 1.58 C-1.13 -11.06, 0.73 -61.47, 1.19 -74.69" stroke="#f08c00" stroke-width="1" fill="none"></path></g><g transform="translate(1580.0516183305153 171.4640147473974) rotate(0 0 -38.00404102548828)"><path d="M8.91 -50.91 C4.61 -61.98, 2.44 -71.02, 1.19 -74.69 M8.91 -50.91 C5.5 -57.92, 4.28 -66.89, 1.19 -74.69" stroke="#f08c00" stroke-width="1" fill="none"></path></g><g transform="translate(1580.0516183305153 171.4640147473974) rotate(0 0 -38.00404102548828)"><path d="M-8.18 -51.51 C-5.7 -62.38, -1.1 -71.19, 1.19 -74.69 M-8.18 -51.51 C-5.86 -58.38, -1.35 -67.16, 1.19 -74.69" stroke="#f08c00" stroke-width="1" fill="none"></path></g></g><mask></mask><g stroke-linecap="round"><g transform="translate(1826.1116805633392 169.90998393790778) rotate(0 0 -38.00404102548828)"><path d="M0.42 0.31 C0.52 -12.38, 0.34 -64.32, 0.45 -76.92 M-0.81 -0.57 C-0.82 -13.07, -0.55 -63.08, -0.26 -75.86" stroke="#1971c2" stroke-width="1" fill="none"></path></g><g transform="translate(1826.1116805633392 169.90998393790778) rotate(0 0 -38.00404102548828)"><path d="M7.99 -52.26 C6.28 -58.28, 1.87 -63.96, -0.26 -75.86 M7.99 -52.26 C5.69 -61.22, 1.33 -69.56, -0.26 -75.86" stroke="#1971c2" stroke-width="1" fill="none"></path></g><g transform="translate(1826.1116805633392 169.90998393790778) rotate(0 0 -38.00404102548828)"><path d="M-9.11 -52.48 C-5.89 -58.49, -5.37 -64.12, -0.26 -75.86 M-9.11 -52.48 C-5.24 -61.3, -3.42 -69.56, -0.26 -75.86" stroke="#1971c2" stroke-width="1" fill="none"></path></g></g><mask></mask><g transform="translate(740.9019307355957 179.81339069906244) rotate(0 82.01667022705078 24)"><text x="82.01667022705078" y="19.3125" font-family="Cascadia, Segoe UI Emoji" font-size="20px" fill="#1971c2" text-anchor="middle" style="white-space: pre;" direction="ltr" dominant-baseline="alphabetic">Numéro et nom </text><text x="82.01667022705078" y="43.3125" font-family="Cascadia, Segoe UI Emoji" font-size="20px" fill="#1971c2" text-anchor="middle" style="white-space: pre;" direction="ltr" dominant-baseline="alphabetic">de rue</text></g><g transform="translate(408.534828818827 249.38010986436257) rotate(0 175.75 24)"><text x="175.75" y="19.3125" font-family="Cascadia, Segoe UI Emoji" font-size="20px" fill="#f08c00" text-anchor="middle" style="white-space: pre;" direction="ltr" dominant-baseline="alphabetic">Numéro d'appartement</text><text x="175.75" y="43.3125" font-family="Cascadia, Segoe UI Emoji" font-size="20px" fill="#f08c00" text-anchor="middle" style="white-space: pre;" direction="ltr" dominant-baseline="alphabetic">ou de maison (adresse étendue)</text></g><g transform="translate(1761.0355166308946 181.9843890475504) rotate(0 64.44166564941406 12)"><text x="0" y="19.3125" font-family="Cascadia, Segoe UI Emoji" font-size="20px" fill="#1971c2" text-anchor="start" style="white-space: pre;" direction="ltr" dominant-baseline="alphabetic">Nom du pays</text></g><g transform="translate(980.2481653279392 182.38993585333355) rotate(0 87.875 12)"><text x="87.875" y="19.3125" font-family="Cascadia, Segoe UI Emoji" font-size="20px" fill="#2f9e44" text-anchor="middle" style="white-space: pre;" direction="ltr" dominant-baseline="alphabetic">Nom de la ville</text></g><g transform="translate(1221.4937424027921 181.98438904754948) rotate(0 117.16666412353516 12)"><text x="117.16666412353516" y="19.3125" font-family="Cascadia, Segoe UI Emoji" font-size="20px" fill="#e03131" text-anchor="middle" style="white-space: pre;" direction="ltr" dominant-baseline="alphabetic">Département / Région</text></g><g transform="translate(1534.449801458226 179.4078438932802) rotate(0 64.44166564941406 12)"><text x="64.44166564941406" y="19.3125" font-family="Cascadia, Segoe UI Emoji" font-size="20px" fill="#f08c00" text-anchor="middle" style="white-space: pre;" direction="ltr" dominant-baseline="alphabetic">Code postal</text></g><g transform="translate(15.629627150638044 18.736892220962545) rotate(0 58.58333206176758 12)"><text x="58.58333206176758" y="19.3125" font-family="Cascadia, Segoe UI Emoji" font-size="20px" fill="#1e1e1e" text-anchor="middle" style="white-space: pre;" direction="ltr" dominant-baseline="alphabetic">Exemple : </text></g><g transform="translate(10 68.36431899501986) rotate(0 99.59166717529297 12)"><text x="99.59166717529297" y="19.3125" font-family="Cascadia, Segoe UI Emoji" font-size="20px" fill="#1e1e1e" text-anchor="middle" style="white-space: pre;" direction="ltr" dominant-baseline="alphabetic">Formalisme RFC : </text></g></svg>