<svg version="1.1" xmlns="http://www.w3.org/2000/svg" viewBox="0 0 1311.5794166010892 270.99006828342226" width="1311.5794166010892" height="270.99006828342226">
  <!-- svg-source:excalidraw -->
  
  <defs>
    <style class="style-fonts">
      @font-face {
        font-family: "Virgil";
        src: url("https://excalidraw.com/Virgil.woff2");
      }
      @font-face {
        font-family: "Cascadia";
        src: url("https://excalidraw.com/Cascadia.woff2");
      }
      @font-face {
        font-family: "Assistant";
        src: url("https://excalidraw.com/Assistant-Regular.woff2");
      }
    </style>
    
  </defs>
  <rect x="0" y="0" width="1311.5794166010892" height="270.99006828342226" fill="#ffffff"></rect><g transform="translate(10 13.077383610101606) rotate(0 58.58333206176758 12)"><text x="58.58333206176758" y="19.3125" font-family="Cascadia, Segoe UI Emoji" font-size="20px" fill="#1e1e1e" text-anchor="middle" style="white-space: pre;" direction="ltr" dominant-baseline="alphabetic">Exemple : </text></g><g transform="translate(10 72.97783705020265) rotate(0 99.59166717529297 12)"><text x="99.59166717529297" y="19.3125" font-family="Cascadia, Segoe UI Emoji" font-size="20px" fill="#1e1e1e" text-anchor="middle" style="white-space: pre;" direction="ltr" dominant-baseline="alphabetic">Formalisme RFC : </text></g><g transform="translate(435.4350896176202 86.14423000236548) rotate(0 64.44166564941406 12)"><text x="0" y="19.3125" font-family="Cascadia, Segoe UI Emoji" font-size="20px" fill="#e03131" text-anchor="start" style="white-space: pre;" direction="ltr" dominant-baseline="alphabetic">Given names</text></g><g transform="translate(283.59914248302266 13.077383610101606) rotate(0 23.433332443237305 12)"><text x="0" y="19.3125" font-family="Cascadia, Segoe UI Emoji" font-size="20px" fill="#2f9e44" text-anchor="start" style="white-space: pre;" direction="ltr" dominant-baseline="alphabetic">Gump</text></g><g transform="translate(458.86842015350885 10.919508862788462) rotate(0 41.00833511352539 12)"><text x="0" y="19.3125" font-family="Cascadia, Segoe UI Emoji" font-size="20px" fill="#e03131" text-anchor="start" style="white-space: pre;" direction="ltr" dominant-baseline="alphabetic">Forrest</text></g><g transform="translate(399.68855317185626 10.919508862788462) rotate(0 5.858333110809326 12)"><text x="0" y="19.3125" font-family="Cascadia, Segoe UI Emoji" font-size="20px" fill="#1e1e1e" text-anchor="start" style="white-space: pre;" direction="ltr" dominant-baseline="alphabetic">;</text></g><g transform="translate(577.1537636900302 10.919508862788462) rotate(0 5.858333110809326 12)"><text x="0" y="19.3125" font-family="Cascadia, Segoe UI Emoji" font-size="20px" fill="#1e1e1e" text-anchor="start" style="white-space: pre;" direction="ltr" dominant-baseline="alphabetic">;</text></g><g transform="translate(677.2758987945217 10) rotate(0 23.433332443237305 12)"><text x="0" y="19.3125" font-family="Cascadia, Segoe UI Emoji" font-size="20px" fill="#1e1e1e" text-anchor="start" style="white-space: pre;" direction="ltr" dominant-baseline="alphabetic">vide</text></g><g transform="translate(941.3211322904899 10.919508862788462) rotate(0 17.575000762939453 12)"><text x="0" y="19.3125" font-family="Cascadia, Segoe UI Emoji" font-size="20px" fill="#f08c00" text-anchor="start" style="white-space: pre;" direction="ltr" dominant-baseline="alphabetic">Mr.</text></g><g transform="translate(819.5944173476237 10.919508862788462) rotate(0 5.858333110809326 12)"><text x="0" y="19.3125" font-family="Cascadia, Segoe UI Emoji" font-size="20px" fill="#1e1e1e" text-anchor="start" style="white-space: pre;" direction="ltr" dominant-baseline="alphabetic">;</text></g><g transform="translate(1172.6960872096097 10.919508862788462) rotate(0 23.433332443237305 12)"><text x="0" y="19.3125" font-family="Cascadia, Segoe UI Emoji" font-size="20px" fill="#1e1e1e" text-anchor="start" style="white-space: pre;" direction="ltr" dominant-baseline="alphabetic">vide</text></g><g transform="translate(219.15747492625997 74.14423000236548) rotate(0 87.875 24)"><text x="87.875" y="19.3125" font-family="Cascadia, Segoe UI Emoji" font-size="20px" fill="#2f9e44" text-anchor="middle" style="white-space: pre;" direction="ltr" dominant-baseline="alphabetic">Family Names</text><text x="87.875" y="43.3125" font-family="Cascadia, Segoe UI Emoji" font-size="20px" fill="#2f9e44" text-anchor="middle" style="white-space: pre;" direction="ltr" dominant-baseline="alphabetic">(aka. surnames)</text></g><g transform="translate(399.68855317185626 86.14423000236548) rotate(0 5.858333110809326 12)"><text x="0" y="19.3125" font-family="Cascadia, Segoe UI Emoji" font-size="20px" fill="#1e1e1e" text-anchor="start" style="white-space: pre;" direction="ltr" dominant-baseline="alphabetic">;</text></g><g transform="translate(577.1537636900302 86.14423000236548) rotate(0 5.858333110809326 12)"><text x="0" y="19.3125" font-family="Cascadia, Segoe UI Emoji" font-size="20px" fill="#1e1e1e" text-anchor="start" style="white-space: pre;" direction="ltr" dominant-baseline="alphabetic">;</text></g><g transform="translate(592.9759014648098 74.14423000236548) rotate(0 111.30833435058594 24)"><text x="111.30833435058594" y="19.3125" font-family="Cascadia, Segoe UI Emoji" font-size="20px" fill="#1971c2" text-anchor="middle" style="white-space: pre;" direction="ltr" dominant-baseline="alphabetic">Additional Names</text><text x="111.30833435058594" y="43.3125" font-family="Cascadia, Segoe UI Emoji" font-size="20px" fill="#1971c2" text-anchor="middle" style="white-space: pre;" direction="ltr" dominant-baseline="alphabetic">(aka. middle names)</text></g><g transform="translate(853.4461361051872 86.14423000236548) rotate(0 105.44999694824219 12)"><text x="0" y="19.3125" font-family="Cascadia, Segoe UI Emoji" font-size="20px" fill="#f08c00" text-anchor="start" style="white-space: pre;" direction="ltr" dominant-baseline="alphabetic">Honorific Prefixes</text></g><g transform="translate(819.5944173476237 86.14423000236548) rotate(0 5.858333110809326 12)"><text x="0" y="19.3125" font-family="Cascadia, Segoe UI Emoji" font-size="20px" fill="#1e1e1e" text-anchor="start" style="white-space: pre;" direction="ltr" dominant-baseline="alphabetic">;</text></g><g transform="translate(1090.6794227046048 86.14423000236548) rotate(0 105.44999694824219 12)"><text x="0" y="19.3125" font-family="Cascadia, Segoe UI Emoji" font-size="20px" fill="#2f9e44" text-anchor="start" style="white-space: pre;" direction="ltr" dominant-baseline="alphabetic">Honorific Suffixes</text></g><g transform="translate(1067.9764077911786 86.14423000236548) rotate(0 5.858333110809326 12)"><text x="0" y="19.3125" font-family="Cascadia, Segoe UI Emoji" font-size="20px" fill="#1e1e1e" text-anchor="start" style="white-space: pre;" direction="ltr" dominant-baseline="alphabetic">;</text></g><g transform="translate(1067.9764077911786 10.919508862788462) rotate(0 5.858333110809326 12)"><text x="0" y="19.3125" font-family="Cascadia, Segoe UI Emoji" font-size="20px" fill="#1e1e1e" text-anchor="start" style="white-space: pre;" direction="ltr" dominant-baseline="alphabetic">;</text></g><g stroke-linecap="round"><g transform="translate(307.0325985491327 204.51458430735693) rotate(0 0 -38.00404102548828)"><path d="M0.16 -0.24 C-0.04 -13.22, -1.04 -64.02, -0.98 -76.72 M-1.21 -1.41 C-1.07 -13.74, 1 -63.24, 1.21 -75.55" stroke="#2f9e44" stroke-width="1" fill="none"></path></g><g transform="translate(307.0325985491327 204.51458430735693) rotate(0 0 -38.00404102548828)"><path d="M9.04 -51.81 C5.92 -60.99, 2.64 -66.03, 1.21 -75.55 M9.04 -51.81 C6.67 -57.24, 5.64 -63.53, 1.21 -75.55" stroke="#2f9e44" stroke-width="1" fill="none"></path></g><g transform="translate(307.0325985491327 204.51458430735693) rotate(0 0 -38.00404102548828)"><path d="M-8.06 -52.33 C-5.73 -61.37, -3.57 -66.24, 1.21 -75.55 M-8.06 -52.33 C-5.87 -57.56, -2.35 -63.71, 1.21 -75.55" stroke="#2f9e44" stroke-width="1" fill="none"></path></g></g><mask></mask><g stroke-linecap="round"><g transform="translate(499.82464697836076 203.7979610726079) rotate(0 0 -38.00404102548828)"><path d="M0.64 -0.01 C0.55 -12.82, 0.84 -63.34, 0.58 -76 M-0.48 -1.06 C-0.78 -13.75, -0.39 -62.2, -0.07 -74.46" stroke="#e03131" stroke-width="1" fill="none"></path></g><g transform="translate(499.82464697836076 203.7979610726079) rotate(0 0 -38.00404102548828)"><path d="M8.12 -50.84 C4.72 -59.11, 1.53 -70.94, -0.07 -74.46 M8.12 -50.84 C6.25 -58.72, 2.44 -66.13, -0.07 -74.46" stroke="#e03131" stroke-width="1" fill="none"></path></g><g transform="translate(499.82464697836076 203.7979610726079) rotate(0 0 -38.00404102548828)"><path d="M-8.97 -51.1 C-5.66 -59.36, -2.13 -71.09, -0.07 -74.46 M-8.97 -51.1 C-5.64 -58.82, -4.23 -66.15, -0.07 -74.46" stroke="#e03131" stroke-width="1" fill="none"></path></g></g><mask></mask><g stroke-linecap="round"><g transform="translate(700.2258537977777 202.64257394669858) rotate(0 0 -38.00404102548828)"><path d="M0.84 1.15 C0.92 -11.67, 1.31 -63.96, 1.07 -76.85 M-0.18 0.7 C-0.22 -11.98, 0.93 -63.14, 0.68 -75.76" stroke="#1971c2" stroke-width="1" fill="none"></path></g><g transform="translate(700.2258537977777 202.64257394669858) rotate(0 0 -38.00404102548828)"><path d="M9.13 -52.23 C8.08 -58.64, 1.79 -69.69, 0.68 -75.76 M9.13 -52.23 C5.76 -59.17, 4.72 -64.98, 0.68 -75.76" stroke="#1971c2" stroke-width="1" fill="none"></path></g><g transform="translate(700.2258537977777 202.64257394669858) rotate(0 0 -38.00404102548828)"><path d="M-7.97 -52.3 C-3.02 -58.81, -3.3 -69.83, 0.68 -75.76 M-7.97 -52.3 C-6.49 -59.37, -2.67 -65.16, 0.68 -75.76" stroke="#1971c2" stroke-width="1" fill="none"></path></g></g><mask></mask><g stroke-linecap="round"><g transform="translate(958.5761194962324 203.61230764834454) rotate(0 0 -38.00404102548828)"><path d="M0.77 0.18 C1.08 -12.4, 0.83 -61.97, 0.65 -74.84 M-0.28 -0.78 C0.03 -13.72, 0.2 -63.77, 0.05 -76.35" stroke="#f08c00" stroke-width="1" fill="none"></path></g><g transform="translate(958.5761194962324 203.61230764834454) rotate(0 0 -38.00404102548828)"><path d="M8.67 -52.88 C7.09 -56.48, 7.01 -62.79, 0.05 -76.35 M8.67 -52.88 C6.11 -57.65, 4.33 -63.26, 0.05 -76.35" stroke="#f08c00" stroke-width="1" fill="none"></path></g><g transform="translate(958.5761194962324 203.61230764834454) rotate(0 0 -38.00404102548828)"><path d="M-8.43 -52.83 C-6.55 -56.55, -3.19 -62.87, 0.05 -76.35 M-8.43 -52.83 C-7.31 -57.51, -5.42 -63.13, 0.05 -76.35" stroke="#f08c00" stroke-width="1" fill="none"></path></g></g><mask></mask><g stroke-linecap="round"><g transform="translate(1195.8872567934613 204.3492362409761) rotate(0 0 -38.00404102548828)"><path d="M-1.02 -1.01 C-1.33 -13.81, -0.96 -64.42, -0.72 -77.09 M0.65 1.07 C0.62 -11.6, 1.75 -63.23, 1.61 -76.12" stroke="#2f9e44" stroke-width="1" fill="none"></path></g><g transform="translate(1195.8872567934613 204.3492362409761) rotate(0 0 -38.00404102548828)"><path d="M9.98 -52.56 C5.02 -63.19, 1.59 -70.69, 1.61 -76.12 M9.98 -52.56 C8.28 -57.62, 5.79 -63.6, 1.61 -76.12" stroke="#2f9e44" stroke-width="1" fill="none"></path></g><g transform="translate(1195.8872567934613 204.3492362409761) rotate(0 0 -38.00404102548828)"><path d="M-7.12 -52.69 C-5.28 -63.13, -1.92 -70.57, 1.61 -76.12 M-7.12 -52.69 C-5.11 -57.69, -3.89 -63.64, 1.61 -76.12" stroke="#2f9e44" stroke-width="1" fill="none"></path></g></g><mask></mask><g transform="translate(208.48727965179933 213.03645306717317) rotate(0 99.59166717529297 12)"><text x="99.59166717529297" y="19.3125" font-family="Cascadia, Segoe UI Emoji" font-size="20px" fill="#2f9e44" text-anchor="middle" style="white-space: pre;" direction="ltr" dominant-baseline="alphabetic">Nom(s) de famille</text></g><g transform="translate(448.4508095385481 213.03645306717317) rotate(0 52.724998474121094 12)"><text x="52.724998474121094" y="19.3125" font-family="Cascadia, Segoe UI Emoji" font-size="20px" fill="#e03131" text-anchor="middle" style="white-space: pre;" direction="ltr" dominant-baseline="alphabetic">Prénom(s)</text></g><g transform="translate(623.2901053246551 213.03645306717317) rotate(0 82.01667022705078 12)"><text x="82.01667022705078" y="19.3125" font-family="Cascadia, Segoe UI Emoji" font-size="20px" fill="#1971c2" text-anchor="middle" style="white-space: pre;" direction="ltr" dominant-baseline="alphabetic">Autres prénoms</text></g><a href="https://fr.wikipedia.org/wiki/Titres_et_pr%C3%A9dicats"><g transform="translate(853.0629924665063 212.99006828342226) rotate(0 99.59166717529297 12)"><text x="99.59166717529297" y="19.3125" font-family="Cascadia, Segoe UI Emoji" font-size="20px" fill="#f08c00" text-anchor="middle" style="white-space: pre;" direction="ltr" dominant-baseline="alphabetic">Titre de civilité</text></g></a><a href="https://fr.wikipedia.org/wiki/Titres_et_pr%C3%A9dicats"><g transform="translate(1098.5718588310228 212.99006828342226) rotate(0 99.59166717529297 24)"><text x="99.59166717529297" y="19.3125" font-family="Cascadia, Segoe UI Emoji" font-size="20px" fill="#2f9e44" text-anchor="middle" style="white-space: pre;" direction="ltr" dominant-baseline="alphabetic">Titre de civilité</text><text x="99.59166717529297" y="43.3125" font-family="Cascadia, Segoe UI Emoji" font-size="20px" fill="#2f9e44" text-anchor="middle" style="white-space: pre;" direction="ltr" dominant-baseline="alphabetic">(suffixe)</text></g></a></svg>